<?xml version="1.0" encoding="UTF-8" standalone="no"?>
<!-- Created with Inkscape (http://www.inkscape.org/) -->

<svg
   version="1.1"
   id="svg35039"
   xml:space="preserve"
   width="800"
   height="800"
   viewBox="0 0 800 800"
   sodipodi:docname="gentleman-vintage-dress.svg"
   inkscape:version="1.1.2 (b8e25be833, 2022-02-05)"
   xmlns:inkscape="http://www.inkscape.org/namespaces/inkscape"
   xmlns:sodipodi="http://sodipodi.sourceforge.net/DTD/sodipodi-0.dtd"
   xmlns="http://www.w3.org/2000/svg"
   xmlns:svg="http://www.w3.org/2000/svg"><defs
     id="defs35043"><clipPath
       clipPathUnits="userSpaceOnUse"
       id="clipPath35053"><path
         d="M 0,600 H 600 V 0 H 0 Z"
         id="path35051" /></clipPath></defs><sodipodi:namedview
     id="namedview35041"
     pagecolor="#ffffff"
     bordercolor="#666666"
     borderopacity="1.0"
     inkscape:pageshadow="2"
     inkscape:pageopacity="0.0"
     inkscape:pagecheckerboard="0"
     showgrid="false"
     inkscape:zoom="1.03875"
     inkscape:cx="400"
     inkscape:cy="400"
     inkscape:window-width="1920"
     inkscape:window-height="1018"
     inkscape:window-x="-8"
     inkscape:window-y="-8"
     inkscape:window-maximized="1"
     inkscape:current-layer="g35045" /><g
     id="g35045"
     inkscape:groupmode="layer"
     inkscape:label="gentleman-vintage-dress"
     transform="matrix(1.3333333,0,0,-1.3333333,0,800)"><g
       id="g35047"><g
         id="g35049"
         clip-path="url(#clipPath35053)"><path
           d="m 387.695,69.356 8.618,-40.118 c 3.411,-2.382 4.498,-0.886 5.407,0.897 l -13.408,63.68 z"
           style="fill:#0063c3;fill-opacity:1;fill-rule:nonzero;stroke:none"
           id="path35055" /><path
           d="m 377.286,11.309 -9.345,1.126 c 3.55,-2.044 6.919,-1.99 9.345,-1.126"
           style="fill:#0066c9;fill-opacity:1;fill-rule:nonzero;stroke:none"
           id="path35057" /><path
           d="m 367.878,246.119 c -2.121,17.104 -3.805,34.286 -8.99,50.883 0.4,0.607 0.779,1.242 1.146,1.893 l -20.408,-10.159 z"
           style="fill:#70c9cd;fill-opacity:1;fill-rule:nonzero;stroke:none"
           id="path35059" /><path
           d="m 359.599,437.464 c -0.086,0.207 -0.169,0.414 -0.257,0.621 2.444,2.555 -4.665,17.89 -4.51,25.023 -8.719,8.715 -18.187,13.821 -26.358,16.359 l -13.108,-3.446 z"
           style="fill:#c32500;fill-opacity:1;fill-rule:nonzero;stroke:none"
           id="path35061" /><path
           d="m 328.474,479.467 c -3.349,1.04 -6.483,1.652 -9.255,1.899 2.887,0.909 5.574,0.668 9.019,4.959 1.793,4.38 -1.414,4.602 -7.29,2.601 l -5.582,-12.905 z"
           style="fill:#c10600;fill-opacity:1;fill-rule:nonzero;stroke:none"
           id="path35063" /><path
           d="m 331.851,45.471 c 0.218,-3.44 3.118,-2.415 4.959,-3.164 -0.438,-2.669 -1.45,-4.625 0.448,-7.88 -0.598,-7.364 9.825,-2.727 12.62,-5.639 5.662,-5.199 8.181,-7.281 17.132,-15.772 0.311,-0.211 0.622,-0.404 0.931,-0.581 l 9.345,-1.126 c 1.055,0.375 1.933,0.902 2.569,1.477 1.403,0.86 1.909,2.241 1.768,3.992 l -55.775,79.678 c 2.48,-21.431 4.09,-34.796 6.003,-50.985"
           style="fill:#0074ce;fill-opacity:1;fill-rule:nonzero;stroke:none"
           id="path35065" /><path
           d="m 381.703,125.2 -5.916,-0.407 11.908,-55.437 0.617,24.459 z"
           style="fill:#007fd1;fill-opacity:1;fill-rule:nonzero;stroke:none"
           id="path35067" /><path
           d="m 325.848,96.456 55.775,-79.678 c -0.64,7.957 -14.691,23.594 -19.123,33.202 l 2.704,-0.459 c -1.998,23.55 -3.307,48.487 -4.199,74.254 l -37.991,-2.615 c 1.072,-9.417 2.002,-17.514 2.834,-24.704"
           style="fill:#007fd1;fill-opacity:1;fill-rule:nonzero;stroke:none"
           id="path35069" /><path
           d="m 360.034,298.895 c 6.923,12.213 8.276,31.336 12.382,46.783 3.61,9.769 3.571,21.362 2.877,33.287 l -35.667,-90.229 z"
           style="fill:#acc38d;fill-opacity:1;fill-rule:nonzero;stroke:none"
           id="path35071" /><path
           d="m 316.066,525.993 c 3.647,2.611 2.106,8.192 1.806,13.07 -0.31,4.269 -2.737,4.832 -5.412,4.958 3.848,0.805 4.164,5.154 5.862,8.112 -1.937,1.646 -1.676,6.946 -10.151,-2.312 l 2.595,-26.619 c 3.12,-0.155 4.523,1.069 5.3,2.791"
           style="fill:#c60800;fill-opacity:1;fill-rule:nonzero;stroke:none"
           id="path35073" /><path
           d="m 314.26,507.057 c -0.419,2.819 -1.335,4.147 -2.408,5.008 l 1.023,-10.501 c 0.521,1.303 0.994,3.026 1.385,5.493"
           style="fill:#c60800;fill-opacity:1;fill-rule:nonzero;stroke:none"
           id="path35075" /><path
           d="m 320.948,488.926 c -1.346,-0.46 -2.834,-1.034 -4.432,-1.704 -0.519,1.057 -1.245,2.007 -2.505,2.695 l 1.355,-13.896 z"
           style="fill:#c60800;fill-opacity:1;fill-rule:nonzero;stroke:none"
           id="path35077" /><path
           d="m 341.769,380.849 c 7.236,-5.822 3.6,-27.957 5.407,-41.924 -2.555,-2.774 -2.991,-1.335 -3.831,-0.679 -3.797,13.564 1.656,12.022 -8.066,27.75 2.727,8.813 -0.023,21.249 -0.276,36.033 l 2.255,-2.704 c 1.484,-6.133 0.179,-8.364 4.511,-18.476 m -2.143,-92.113 35.667,90.229 c -0.054,0.926 -0.111,1.852 -0.172,2.782 -2.922,10.432 -4.941,20.688 -7.564,31.066 l -84.537,2.074 z"
           style="fill:#c8c46f;fill-opacity:1;fill-rule:nonzero;stroke:none"
           id="path35079" /><path
           d="m 379.71,134.667 -7.598,7.236 3.675,-17.11 5.916,0.407 z"
           style="fill:#0097de;fill-opacity:1;fill-rule:nonzero;stroke:none"
           id="path35081" /><path
           d="m 323.734,177.994 c -2.951,-15.311 -1.559,-31.475 -1.8,-47.329 0.376,-3.315 0.734,-6.477 1.08,-9.505 l 37.991,2.615 c -0.337,9.73 -0.615,19.579 -0.849,29.516 L 316.361,195 c 1.94,-4.679 4.352,-10.27 7.373,-17.006"
           style="fill:#0097de;fill-opacity:1;fill-rule:nonzero;stroke:none"
           id="path35083" /><path
           d="m 316.361,195 43.795,-41.709 c -0.134,5.653 -0.253,11.335 -0.359,17.042 -0.243,9.284 -1.568,19.217 -3.23,29.35 l -41.008,-2.734 c 0.256,-0.631 0.525,-1.281 0.802,-1.949"
           style="fill:#008dde;fill-opacity:1;fill-rule:nonzero;stroke:none"
           id="path35085" /><path
           d="m 365.89,200.305 -6.233,-0.416 12.455,-57.986 7.598,-7.236 z"
           style="fill:#008dde;fill-opacity:1;fill-rule:nonzero;stroke:none"
           id="path35087" /><path
           d="m 358.438,235.692 c 3.935,-0.415 9.067,-2.324 10.821,0 -0.501,3.468 -0.95,6.947 -1.381,10.427 l -28.252,42.617 -24.749,-90.11 c 0.22,-0.545 0.447,-1.104 0.682,-1.677 l 41.008,2.734 c -1.689,10.298 -3.726,20.804 -5.337,31.05 h 1.801 l 6.626,-30.844 6.233,0.416 z"
           style="fill:#1ca0e2;fill-opacity:1;fill-rule:nonzero;stroke:none"
           id="path35089" /><path
           d="m 283.02,414.887 84.537,-2.074 c -2.046,8.095 -4.462,16.267 -7.958,24.651 l -44.233,38.557 z"
           style="fill:#ce6510;fill-opacity:1;fill-rule:nonzero;stroke:none"
           id="path35091" /><path
           d="M 283.02,414.887 215.223,382.27 c -2.717,-10.14 -0.665,-16.954 -2.838,-28.93 12.701,-0.736 24.252,-4.936 40.123,3.831 C 237.7,321.034 231.509,296.389 224.79,271.04 l 0.977,-2.683 z"
           style="fill:#dae266;fill-opacity:1;fill-rule:nonzero;stroke:none"
           id="path35093" /><path
           d="m 260.265,63.274 19.939,-24.143 c 0.24,0.155 0.477,0.312 0.703,0.473 5.051,-2.037 6.581,-0.564 9.469,-0.449 0.483,3.693 1.76,6.799 0,12.172 l 4.062,0.449 c -0.807,17.761 0.09,40.626 0.206,61.147 L 260.998,96.1 c 0.401,-11.459 -0.147,-22.156 -0.733,-32.826"
           style="fill:#008ad9;fill-opacity:1;fill-rule:nonzero;stroke:none"
           id="path35095" /><path
           d="m 225.767,268.357 67.436,-54.392 c -0.223,2.815 -0.555,5.696 -1.021,8.657 l 3.152,0.449 3.832,-0.897 7.893,0.448 c 1.371,-3.822 0.644,-6.2 7.818,-23.996 l 24.749,90.11 z"
           style="fill:#77e0e0;fill-opacity:1;fill-rule:nonzero;stroke:none"
           id="path35097" /><path
           d="M 225.767,268.357 339.626,288.736 283.02,414.887 Z"
           style="fill:#b0df7e;fill-opacity:1;fill-rule:nonzero;stroke:none"
           id="path35099" /><path
           d="m 240.79,569.711 c 3.838,-7.508 7.68,-11.711 11.523,-18.372 l 34.793,37.298 C 263.915,586.206 252.3,577.982 240.79,569.711"
           style="fill:#df2200;fill-opacity:1;fill-rule:nonzero;stroke:none"
           id="path35101" /><path
           d="m 260.176,108.575 c 0.42,-4.276 0.679,-8.423 0.822,-12.475 l 33.646,16.823 c 0.117,20.622 -0.557,38.869 -4.536,47.194 L 259.48,113.771 c 0.27,-1.695 0.507,-3.421 0.696,-5.196"
           style="fill:#009be2;fill-opacity:1;fill-rule:nonzero;stroke:none"
           id="path35103" /><path
           d="m 253.865,169.436 c -3.689,-24.12 2.813,-38.043 5.615,-55.665 l 30.628,46.346 c -0.202,0.423 -0.41,0.826 -0.629,1.196 1.251,13.329 3.68,25.948 4.042,39.81 l -45.049,9.175 c -0.834,-14.611 4.173,-27.031 5.393,-40.862"
           style="fill:#1ab6ec;fill-opacity:1;fill-rule:nonzero;stroke:none"
           id="path35105" /><path
           d="m 314.011,489.917 c -0.754,0.411 -1.698,0.728 -2.904,0.917 0.029,2.796 -0.482,4.695 -2.254,4.499 1.3,2.449 2.793,3.158 4.022,6.231 l -1.023,10.501 c -0.666,0.534 -1.392,0.89 -2.096,1.308 2.307,0.633 0.977,2.726 0.454,4.498 1.202,1.806 0,3.612 -0.454,5.419 0.357,-0.046 0.689,-0.072 1.01,-0.088 l -2.595,26.619 c -1.117,-1.219 -2.383,-2.687 -3.827,-4.453 -3.361,5.637 -8.951,19.615 -17.132,43.28 -0.035,-0.003 -0.069,-0.007 -0.106,-0.011 l -34.793,-37.298 c 2.77,-4.799 5.541,-10.875 8.311,-20.386 -1.835,1.829 -15.635,-4.292 -13.529,-10.378 3.411,-9.802 17.303,-9.239 17.131,-8.56 4.084,-4.326 7.489,-5.293 10.365,-3.601 1.209,-7.225 0.742,-9.434 -0.449,-9.468 -2.956,-2.348 -6.534,-4.603 -1.345,-8.122 -10.82,-6.363 -22.091,-10.47 -32.717,-17.794 l 75.286,2.991 z"
           style="fill:#dc2b00;fill-opacity:1;fill-rule:nonzero;stroke:none"
           id="path35107" /><path
           d="M 315.366,476.021 240.08,473.03 c -3.768,-2.596 -7.456,-5.592 -11.013,-9.243 -1.528,-5.989 -2.954,-12.15 -4.229,-18.391 l 58.182,-30.509 z"
           style="fill:#df5e00;fill-opacity:1;fill-rule:nonzero;stroke:none"
           id="path35109" /><path
           d="m 223.611,266.611 c -2.42,-9.045 -4.972,-18.268 -8.069,-28.215 -2.041,-14.174 14.089,-13.392 35.614,-13.967 -1.626,-4.985 -2.428,-9.66 -2.684,-14.131 l 45.049,-9.175 c 0.108,4.151 0.032,8.415 -0.318,12.842 l -67.436,54.392 z"
           style="fill:#6bd8ef;fill-opacity:1;fill-rule:nonzero;stroke:none"
           id="path35111" /><path
           d="m 259.727,53.133 c -4.245,-10.124 -8.721,-20.065 -15.331,-28.405 1.951,-10.239 7.111,-6.823 11.27,-7.663 7.397,4.303 15.151,8.192 18.482,17.131 0.758,2.069 3.688,3.406 6.056,4.935 l -19.939,24.143 c -0.185,-3.375 -0.374,-6.748 -0.538,-10.141"
           style="fill:#0074d4;fill-opacity:1;fill-rule:nonzero;stroke:none"
           id="path35113" /><path
           d="m 283.02,414.887 -58.182,30.509 c -3.65,-17.881 -6.047,-36.434 -5.987,-53.583 -1.722,-3.571 -2.864,-6.689 -3.628,-9.543 z"
           style="fill:#e88303;fill-opacity:1;fill-rule:nonzero;stroke:none"
           id="path35115" /><path
           d="m 224.79,271.04 c -0.194,-0.728 -0.388,-1.459 -0.582,-2.188 l 1.559,-0.495 z"
           style="fill:#ddf07f;fill-opacity:1;fill-rule:nonzero;stroke:none"
           id="path35117" /><path
           d="m 224.208,268.852 c -0.198,-0.747 -0.397,-1.493 -0.597,-2.241 l 2.156,1.746 z"
           style="fill:#b9f3bd;fill-opacity:1;fill-rule:nonzero;stroke:none"
           id="path35119" /></g></g></g></svg>
