<?xml version="1.0" encoding="UTF-8" standalone="no"?>
<!-- Created with Inkscape (http://www.inkscape.org/) -->

<svg
   version="1.1"
   id="svg47135"
   xml:space="preserve"
   width="800"
   height="800"
   viewBox="0 0 800 800"
   sodipodi:docname="lady-vintage-dress.svg"
   inkscape:version="1.1.2 (b8e25be833, 2022-02-05)"
   xmlns:inkscape="http://www.inkscape.org/namespaces/inkscape"
   xmlns:sodipodi="http://sodipodi.sourceforge.net/DTD/sodipodi-0.dtd"
   xmlns="http://www.w3.org/2000/svg"
   xmlns:svg="http://www.w3.org/2000/svg"><defs
     id="defs47139"><clipPath
       clipPathUnits="userSpaceOnUse"
       id="clipPath47149"><path
         d="M 0,600 H 600 V 0 H 0 Z"
         id="path47147" /></clipPath></defs><sodipodi:namedview
     id="namedview47137"
     pagecolor="#ffffff"
     bordercolor="#666666"
     borderopacity="1.0"
     inkscape:pageshadow="2"
     inkscape:pageopacity="0.0"
     inkscape:pagecheckerboard="0"
     showgrid="false"
     inkscape:zoom="1.03875"
     inkscape:cx="400"
     inkscape:cy="400"
     inkscape:window-width="1920"
     inkscape:window-height="1018"
     inkscape:window-x="-8"
     inkscape:window-y="-8"
     inkscape:window-maximized="1"
     inkscape:current-layer="g47141" /><g
     id="g47141"
     inkscape:groupmode="layer"
     inkscape:label="lady-vintage-dress"
     transform="matrix(1.3333333,0,0,-1.3333333,0,800)"><g
       id="g47143"><g
         id="g47145"
         clip-path="url(#clipPath47149)"><path
           d="m 270.119,578.575 6.082,-0.389 c -2.046,0.829 -4.076,1.052 -6.082,0.389"
           style="fill:#e04400;fill-opacity:1;fill-rule:nonzero;stroke:none"
           id="path47151" /><path
           d="m 334.605,26.917 c 7.633,-1.99 13.598,-2.352 18.653,-1.949 l -16.659,2.345 z"
           style="fill:#b18b85;fill-opacity:1;fill-rule:nonzero;stroke:none"
           id="path47153" /><path
           d="m 369.663,281.746 c -0.867,1.824 -1.833,3.608 -2.871,5.363 l -2.442,-3.869 z"
           style="fill:#ffdd4d;fill-opacity:1;fill-rule:nonzero;stroke:none"
           id="path47155" /><path
           d="m 294.053,569.313 c -3.453,2.445 -6.973,4.536 -10.894,4.208 -2.331,2.037 -4.655,3.731 -6.958,4.665 l -6.082,0.389 c -1.761,-0.582 -3.503,-1.846 -5.221,-3.997 -6.146,0.973 -5.788,-0.547 -8.085,-1.057 -7.216,-1.265 -10.347,-6.068 -12.645,-11.587 -0.299,-0.284 -0.592,-0.563 -0.881,-0.841 l 54.555,7.732 c -1.363,1.01 -2.643,1.31 -3.789,0.488"
           style="fill:#df2c00;fill-opacity:1;fill-rule:nonzero;stroke:none"
           id="path47157" /><path
           d="m 334.748,168.844 45.389,-1.577 c -0.434,4.025 -0.936,8.058 -1.416,12.089 0.183,16.754 2.967,32.986 -1.057,50.59 -6.554,20.754 -6.371,32.534 -4.572,42.152 -0.02,0.087 -0.042,0.171 -0.063,0.256 l -8.679,10.886 z"
           style="fill:#f0e096;fill-opacity:1;fill-rule:nonzero;stroke:none"
           id="path47159" /><path
           d="m 373.029,272.354 c -0.773,3.27 -1.935,6.385 -3.366,9.392 l -5.313,1.494 z"
           style="fill:#f6ee98;fill-opacity:1;fill-rule:nonzero;stroke:none"
           id="path47161" /><path
           d="m 380.82,138.436 c 1.015,9.453 0.366,19.116 -0.683,28.831 l -45.389,1.577 z"
           style="fill:#d3dfa7;fill-opacity:1;fill-rule:nonzero;stroke:none"
           id="path47163" /><path
           d="m 364.35,283.24 2.442,3.869 c -3.31,5.596 -7.348,10.902 -11.256,16.259 -0.194,17.046 -16.669,32.609 -26,48.827 l 2.809,-0.705 c 2.267,0.389 2.499,4.012 2.462,8.085 l -3.161,1.751 c -0.255,1.593 0.863,2.505 -1.058,4.924 -0.897,0.996 -1.815,1.8 -2.748,2.458 l -20.842,-5.298 z"
           style="fill:#feba1a;fill-opacity:1;fill-rule:nonzero;stroke:none"
           id="path47165" /><path
           d="m 353.258,24.968 c 9.86,0.785 16.271,4.467 24.892,4.601 19.082,0.304 32.523,14.225 42.723,9.678 16.279,-7.233 14.669,11.817 8.432,24.171 -4.808,6.509 -9.616,11.531 -14.424,15.779 L 336.599,27.313 Z"
           style="fill:#b7b9a7;fill-opacity:1;fill-rule:nonzero;stroke:none"
           id="path47167" /><path
           d="m 336.599,27.313 78.282,51.884 c -9.06,8.006 -18.119,13.258 -27.18,20.488 l -76.078,2.864 z"
           style="fill:#c2ba94;fill-opacity:1;fill-rule:nonzero;stroke:none"
           id="path47169" /><path
           d="m 311.623,102.549 76.078,-2.864 c -1.238,0.989 -2.476,2.013 -3.715,3.087 -0.267,7.32 -1.623,14.919 -5.617,23.186 1.223,4.108 2,8.272 2.451,12.478 l -46.072,30.408 z"
           style="fill:#d3c993;fill-opacity:1;fill-rule:nonzero;stroke:none"
           id="path47171" /><path
           d="m 327.84,368.708 c -3.615,2.549 -7.477,2.894 -11.307,3.512 -1.556,1.468 -2.97,2.364 -4.329,3.038 l -5.206,-11.848 z"
           style="fill:#fe9400;fill-opacity:1;fill-rule:nonzero;stroke:none"
           id="path47173" /><path
           d="m 296.156,519.77 c 0.778,1.604 2.79,0.437 1.447,-2.48 -0.183,-0.377 1.204,0.534 1.429,2.711 -0.602,1.86 1.051,0.158 1.014,-1.229 -0.534,-2.017 0.876,-1.92 -0.474,4.438 1.204,4.463 2.311,-1.313 1.302,-1.848 -1.508,-0.79 2.079,-0.924 0.206,4.475 5.07,2.565 4.328,6.285 5.265,9.751 2.778,4.51 1.945,8.583 1.057,12.643 -0.048,7.879 -0.886,12.377 -2.808,12.292 -2.333,3.478 -4.643,6.741 -6.752,8.302 l -54.555,-7.732 c -4.865,-4.664 -8.344,-8.486 -9.307,-10.758 -0.945,-0.542 -1.804,-1.156 -2.567,-1.852 l 73.929,-55.228 c -3.783,8.408 -6.401,17.512 -9.186,26.515"
           style="fill:#f04f00;fill-opacity:1;fill-rule:nonzero;stroke:none"
           id="path47175" /><path
           d="m 322.523,460.295 c 0.237,1.699 -0.001,3.45 -1.771,5.371 -1.781,12.049 -7.635,14.59 -11.945,20.73 -1.268,2.219 -2.409,4.513 -3.465,6.859 l -73.929,55.228 c -1.6,-1.455 -2.775,-3.265 -3.409,-5.528 h 0.006 c 0.426,-2.724 -0.146,-6.724 2.42,-6.711 0.571,-1.629 -1.313,-2.03 4.097,-6.079 2.638,-1.532 4.28,-0.729 5.957,0 4.536,-7.027 1.374,-14.249 0.997,-17.824 2.517,-1.738 5.119,-0.875 6.584,-0.438 1.623,-1.945 0.583,-2.285 0.748,-3.355 0.717,-0.56 0.863,-1.69 2.479,-1.361 0.438,-0.803 -0.339,-1.97 1.885,-2.177 0.876,-1.071 1.052,-1.799 1.228,-2.99 0.189,-1.229 -0.413,-3.393 2.784,-5.265 6.554,-1.082 9.642,0.036 12.621,1.227 2.772,-12.912 -1.241,-16.876 -6.675,-18.966 -7.988,-4.061 -15.696,-8.45 -21.076,-15.453 -0.14,1.581 1.088,3.294 -2.11,4.559 -0.619,2.626 -2.309,4.705 -4.911,6.322 -3.618,0.147 -6.31,-0.316 -5.976,-2.808 -4.784,7.003 -5.344,2.054 -6.73,0.037 -0.533,-0.78 -1.301,-1.326 -2.098,-1.87 l 0.118,-9.264 z"
           style="fill:#f64e00;fill-opacity:1;fill-rule:nonzero;stroke:none"
           id="path47177" /><path
           d="M 334.748,168.844 364.35,283.24 251.803,283.856 Z"
           style="fill:#fbb94f;fill-opacity:1;fill-rule:nonzero;stroke:none"
           id="path47179" /><path
           d="m 364.35,283.24 -57.352,80.17 -55.195,-79.554 z"
           style="fill:#ffab15;fill-opacity:1;fill-rule:nonzero;stroke:none"
           id="path47181" /><path
           d="m 306.998,363.41 5.206,11.848 c -1.983,0.982 -3.847,1.487 -5.859,2.591 5.811,6.638 6.759,28.255 7.027,51.988 3.562,5.239 5.909,14.966 8.085,25.301 0.098,1.748 0.827,3.425 1.066,5.157 l -102.171,0.244 z"
           style="fill:#fd7700;fill-opacity:1;fill-rule:nonzero;stroke:none"
           id="path47183" /><path
           d="m 251.803,283.856 -39.155,-97.749 c 0.65,-2.521 1.735,-5.116 3.411,-7.808 -1.156,-0.956 -2.15,-2.032 -2.994,-3.223 l 121.683,-6.232 z"
           style="fill:#f59959;fill-opacity:1;fill-rule:nonzero;stroke:none"
           id="path47185" /><path
           d="M 311.623,102.549 265.821,35.626 c 1.862,-0.092 2.912,0.83 3.636,2.15 3.149,-0.9 17.119,-3.44 15.112,-1.411 11.077,-3.209 27.064,-1.361 40.255,-6.309 3.549,-1.332 6.791,-2.36 9.781,-3.139 l 1.994,0.396 z"
           style="fill:#bc8670;fill-opacity:1;fill-rule:nonzero;stroke:none"
           id="path47187" /><path
           d="m 334.748,168.844 -121.683,6.232 c -0.486,-0.686 -0.922,-1.412 -1.307,-2.175 l 99.865,-70.352 z"
           style="fill:#e0a468;fill-opacity:1;fill-rule:nonzero;stroke:none"
           id="path47189" /><path
           d="m 251.803,283.856 55.195,79.554 -89.113,-9.251 z"
           style="fill:#ff8800;fill-opacity:1;fill-rule:nonzero;stroke:none"
           id="path47191" /><path
           d="m 306.998,363.41 -86.646,97.129 -1.966,-84.778 c 0.338,0.658 0.687,1.776 1.126,3.96 6.972,-1.009 7.271,3.405 7.088,5.496 2.577,-5.034 0.498,4.292 -0.705,10.893 2.115,-1.057 3.805,-1.69 4.924,-1.762 1.939,-3.32 0.918,-4.937 0.705,-7.028 -3.417,-3.513 -4.055,-5.848 -5.276,-8.425 -3.719,-7.095 -6.392,-14.24 -8.286,-21.422 l -0.077,-3.314 z"
           style="fill:#fd7400;fill-opacity:1;fill-rule:nonzero;stroke:none"
           id="path47193" /><path
           d="m 212.952,76.956 20.109,-38.454 c 5.338,-0.857 10.052,-0.261 14.621,0.672 7.319,-3.452 9.872,-2.14 13.702,-2.103 1.857,-0.955 3.299,-1.389 4.437,-1.445 l 45.802,66.923 z"
           style="fill:#c27660;fill-opacity:1;fill-rule:nonzero;stroke:none"
           id="path47195" /><path
           d="m 311.623,102.549 -99.865,70.352 c -3.104,-6.154 -2.931,-14.768 0.088,-25.52 -0.816,-0.318 -1.524,-0.708 -2.152,-1.151 l 3.258,-69.274 z"
           style="fill:#d5815b;fill-opacity:1;fill-rule:nonzero;stroke:none"
           id="path47197" /><path
           d="m 217.962,357.473 c -0.28,-1.065 -0.545,-2.13 -0.792,-3.196 l 0.715,-0.118 z"
           style="fill:#fa6200;fill-opacity:1;fill-rule:nonzero;stroke:none"
           id="path47199" /><path
           d="m 180.103,400.164 c 3.161,0.964 5.736,3.216 9.835,7.946 0.917,-4.972 -0.444,-1.629 5.397,-7.089 -1.428,-2.333 -4.407,-4.68 -2.814,-7.027 2.127,0 4.073,1.642 5.228,2.919 2.808,-0.949 3.599,1.897 4.96,3.064 4.183,0.267 9.629,1.41 8.791,-1.763 -1.454,1.434 -2.359,-0.377 -3.514,-0.705 -0.875,-1.24 -1.289,-2.76 -0.523,-4.997 3.295,-0.268 5.192,1.203 7.198,2.541 0.194,-10.298 0.012,-23.101 2.103,-21.083 0.674,0.846 1.136,0.843 1.622,1.791 l 1.966,84.778 z"
           style="fill:#fa6200;fill-opacity:1;fill-rule:nonzero;stroke:none"
           id="path47201" /><path
           d="m 220.234,469.803 c -0.854,-0.583 -1.742,-1.165 -2.412,-2.033 0.595,1.702 3.744,7.805 -6.322,1.41 1.264,1.63 2.413,3.477 -0.262,4.657 -1.471,0.644 0.511,3.137 -1.27,4.304 -1.168,0.765 -2.407,0.826 -4.012,2.018 -2.87,2.115 -5.842,2.042 -8.511,-2.201 -2.529,1.265 -5.161,4.098 -7.38,0.705 -0.335,2.699 -1.502,4.985 -3.161,7.027 -2.766,-0.355 -3.766,-2.004 -4.104,-4.14 l 37.552,-21.011 z"
           style="fill:#f03600;fill-opacity:1;fill-rule:nonzero;stroke:none"
           id="path47203" /><path
           d="m 217.885,354.159 -0.904,-0.717 c -4.795,-21.422 -3.1,-43.157 -1.828,-64.87 l 36.65,-4.716 z"
           style="fill:#ff7200;fill-opacity:1;fill-rule:nonzero;stroke:none"
           id="path47205" /><path
           d="m 215.153,288.572 c 0.205,-3.503 0.399,-7.005 0.554,-10.505 -17.885,-24.292 -8.146,-43.829 0.352,-63.587 -1.62,-9.375 -6.007,-18.291 -3.411,-28.373 l 39.155,97.749 z"
           style="fill:#fc741c;fill-opacity:1;fill-rule:nonzero;stroke:none"
           id="path47207" /><path
           d="m 194.093,72.547 c -0.289,-0.349 -0.578,-0.695 -0.867,-1.044 -0.365,-7.649 -3.586,-8.122 -5.617,-11.6 l 4.213,-2.103 5.623,1.058 -1.058,-2.821 4.219,-3.513 c -8.31,-1.52 -6.298,-3.04 -6.675,-4.559 5.204,-7.636 13.532,-4.863 21.428,-3.515 l 7.028,-2.455 c 3.869,-1.89 7.39,-2.966 10.674,-3.493 l -20.109,38.454 z"
           style="fill:#be464a;fill-opacity:1;fill-rule:nonzero;stroke:none"
           id="path47209" /><path
           d="m 209.694,146.23 c -2.417,-1.705 -3.582,-4.239 -4.523,-6.922 -0.164,-1.703 -1.252,-3.101 -4.213,-3.867 -0.012,-13.069 2.237,-22.759 5.97,-30.212 -4.055,-3.413 -6.364,-7.262 -7.997,-11.28 l 14.021,-16.993 z"
           style="fill:#db6747;fill-opacity:1;fill-rule:nonzero;stroke:none"
           id="path47211" /><path
           d="m 217.17,354.277 c -0.064,-0.278 -0.127,-0.556 -0.189,-0.835 l 0.904,0.717 z"
           style="fill:#fa6800;fill-opacity:1;fill-rule:nonzero;stroke:none"
           id="path47213" /><path
           d="m 163.259,435.821 c 0.288,-0.203 0.603,-0.387 0.958,-0.55 -0.434,0.014 -0.766,-0.054 -1.029,-0.177 l -0.302,-3.059 c 3.199,-2.019 3.487,-1.124 4.346,-0.801 2.334,1.751 3.909,1.204 5.617,1.058 -1.757,-1.167 -3.38,-2.395 -3.514,-4.219 -1.021,-2.65 -3.756,-5.118 -2.103,-8.072 0.116,1.738 8.547,5.97 8.778,4.912 0.73,-3.259 -1.598,-5.204 -1.052,-4.559 -8.431,-3.757 -7.799,-5.91 -11.239,-8.791 0.32,-0.503 8.725,-0.553 10.028,1.956 -0.214,-1.423 -0.39,-4.072 0.859,-3.354 -3.544,-4.961 -8.948,-8.997 -13.696,-13.35 4.912,1.703 15.404,9.678 16.243,11.016 -0.152,-3.575 -0.875,-6.177 -5.519,-11.781 3.744,3.306 3.525,2.2 9.507,9.459 0.523,-1.302 -0.219,-3.222 -1.678,-5.521 0.216,0.054 0.429,0.112 0.64,0.176 l 40.249,60.375 -37.552,21.011 c -0.24,-1.515 -0.148,-3.274 -0.115,-4.99 -2.687,2.419 -5.386,5.326 -8.073,4.559 0.079,-2.2 0.869,-4.486 4.559,-7.015 -2.382,-0.133 -2.698,-0.608 -3.161,-1.058 -1.72,-0.377 -2.699,-2.055 -5.617,-0.353 -1.917,0.494 -2.895,0.045 -3.571,-0.705 l -0.501,-5.092 c 0.229,-0.928 0.14,-1.673 -0.222,-2.256 l -0.48,-4.863 c 1.699,-0.098 3.479,-0.597 5.48,-2.196 -1.374,-1.386 -3.113,-2.796 0,-3.854 -3.521,1.138 -5.055,0.953 -6.036,0.4 l -0.278,-2.824 c 1.71,-0.655 3.258,-1.407 3.153,-3.204 -1.229,-0.116 -2.663,0.073 -3.527,-0.587 z"
           style="fill:#f64d00;fill-opacity:1;fill-rule:nonzero;stroke:none"
           id="path47215" /><path
           d="m 198.931,93.949 c -0.56,-1.379 -1.042,-2.777 -1.486,-4.185 l 2.808,-3.161 c -0.431,-6.849 -3.239,-10.527 -6.16,-14.056 l 18.859,4.409 z"
           style="fill:#ca5244;fill-opacity:1;fill-rule:nonzero;stroke:none"
           id="path47217" /><path
           d="m 165.123,469.532 c 0.619,-1.006 1.012,-1.881 1.198,-2.636 l 0.501,5.092 c -0.656,-0.728 -1.028,-1.742 -1.699,-2.456"
           style="fill:#ed4100;fill-opacity:1;fill-rule:nonzero;stroke:none"
           id="path47219" /><path
           d="m 155.986,443.186 c 2.967,-0.758 5.189,-0.279 7.388,0.24 -1.311,-0.629 -2.195,-1.709 -2.462,-2.047 0.099,-2.566 0.701,-4.398 2.347,-5.558 l 1.152,11.691 c -0.325,-0.249 -0.571,-0.614 -0.692,-1.165 -6.189,4.256 -7.757,0.949 -10.542,-0.353 0.511,-1.154 1.01,-2.309 2.809,-2.808"
           style="fill:#ed4100;fill-opacity:1;fill-rule:nonzero;stroke:none"
           id="path47221" /><path
           d="m 160.912,441.379 c -0.001,0.015 -0.002,0.029 -0.002,0.044 -0.114,-0.197 -0.108,-0.185 0.002,-0.044"
           style="fill:#ed4100;fill-opacity:1;fill-rule:nonzero;stroke:none"
           id="path47223" /><path
           d="m 161.962,432.646 c 0.333,-0.23 0.639,-0.43 0.924,-0.611 l 0.302,3.059 c -0.903,-0.421 -0.963,-1.518 -1.226,-2.448"
           style="fill:#ed4100;fill-opacity:1;fill-rule:nonzero;stroke:none"
           id="path47225" /><path
           d="m 162.308,452.317 c 0.745,-0.39 1.63,-0.69 2.477,-1.014 l 0.278,2.824 c -0.99,-0.557 -1.418,-1.486 -2.755,-1.81"
           style="fill:#ed4100;fill-opacity:1;fill-rule:nonzero;stroke:none"
           id="path47227" /><path
           d="m 164.77,463.563 c -5.507,0.462 -4.711,-2.212 -5.97,-3.866 2.356,-0.392 4.513,0.214 6.819,0.08 l 0.48,4.863 c -0.283,-0.453 -0.729,-0.811 -1.329,-1.077"
           style="fill:#ed4100;fill-opacity:1;fill-rule:nonzero;stroke:none"
           id="path47229" /></g></g></g></svg>
